<svg width="120" height="120" viewBox="0 0 120 120" fill="none" xmlns="http://www.w3.org/2000/svg">
<g clip-path="url(#clip0_2_6)">
<path d="M60 120C93.1371 120 120 93.1371 120 60C120 26.8629 93.1371 0 60 0C26.8629 0 0 26.8629 0 60C0 93.1371 26.8629 120 60 120Z" fill="black"/>
<path d="M50.5123 83.0959C49.2346 83.9265 47.9402 83.9738 46.6292 83.2378C45.3207 82.5043 44.6665 81.3709 44.6665 79.8376V40.1626C44.6665 38.6293 45.3207 37.4946 46.6292 36.7586C47.9402 36.0252 49.2346 36.0737 50.5123 36.9043L81.754 56.7418C82.904 57.5084 83.479 58.5945 83.479 60.0001C83.479 61.4057 82.904 62.4918 81.754 63.2584L50.5123 83.0959Z" fill="white"/>
</g>
<defs>
<clipPath id="clip0_2_6">
<rect width="120" height="120" fill="white"/>
</clipPath>
</defs>
</svg>
