<svg width="176" height="176" viewBox="0 0 176 176" fill="none" xmlns="http://www.w3.org/2000/svg">
<g clip-path="url(#clip0_2_9)">
<path d="M72.3826 160.151C112.359 168.648 151.654 143.13 160.151 103.154C168.648 63.1779 143.129 23.8826 103.153 15.3855C63.1775 6.88831 23.8823 32.4069 15.3851 72.3829C6.88795 112.359 32.4066 151.654 72.3826 160.151Z" fill="#2C2A2A"/>
<path d="M74.2419 153.016C110.419 160.705 145.981 137.611 153.67 101.434C161.36 65.2568 138.266 29.6955 102.089 22.0058C65.9115 14.316 30.3502 37.4098 22.6605 73.5872C14.9708 109.765 38.0645 145.326 74.2419 153.016Z" fill="black"/>
<mask id="mask0_2_9" style="mask-type:luminance" maskUnits="userSpaceOnUse" x="38" y="37" width="101" height="101">
<path d="M138.161 37.8888H38.4639V137.586H138.161V37.8888Z" fill="white"/>
</mask>
<g mask="url(#mask0_2_9)">
<path d="M106.993 63.8966C107.409 64.2337 107.746 64.6154 108.004 65.0416C108.264 65.4657 108.424 65.9603 108.483 66.5254L112.403 103.824C112.522 104.954 112.234 105.949 111.537 106.809C110.843 107.667 109.93 108.155 108.8 108.274C107.67 108.393 106.688 108.115 105.856 107.441C105.023 106.766 104.547 105.864 104.428 104.734L101.518 77.0423L73.1968 112.016C72.4803 112.901 71.5905 113.387 70.5274 113.474C69.4663 113.562 68.4934 113.248 67.6087 112.532C66.7239 111.815 66.2237 110.916 66.108 109.833C65.996 108.749 66.2983 107.765 67.0147 106.881L95.2726 71.9849L67.5811 74.8954C66.4509 75.0142 65.4694 74.7365 64.6367 74.0621C63.804 73.3878 63.3282 72.4856 63.2094 71.3553C63.0906 70.225 63.3785 69.231 64.0731 68.3734C64.7693 67.5136 65.6825 67.0243 66.8128 66.9055L104.112 62.9853C104.677 62.9259 105.194 62.9791 105.662 63.1451C106.133 63.3089 106.576 63.5594 106.993 63.8966Z" fill="#EF4444"/>
</g>
</g>
<defs>
<clipPath id="clip0_2_9">
<rect width="176" height="176" fill="white"/>
</clipPath>
</defs>
</svg>
