<svg xmlns="http://www.w3.org/2000/svg" xmlns:xlink="http://www.w3.org/1999/xlink" width="1080" zoomAndPan="magnify" viewBox="0 0 810 809.999993" height="1080" preserveAspectRatio="xMidYMid meet" version="1.0"><defs><g/></defs><g fill="#000000" fill-opacity="1"><g transform="translate(194.536033, 777.605628)"><g><path d="M 112.15625 -297.34375 C 153.882812 -329.800781 187.351562 -366.3125 212.5625 -406.875 C 237.78125 -447.445312 250.390625 -489.175781 250.390625 -532.0625 C 250.390625 -572.632812 235.03125 -592.921875 204.3125 -592.921875 C 190.394531 -592.921875 179.523438 -588.863281 171.703125 -580.75 C 163.878906 -572.632812 159.96875 -561.332031 159.96875 -546.84375 C 159.96875 -532.925781 163.445312 -516.992188 170.40625 -499.046875 L 42.59375 -469.484375 C 32.75 -497.867188 27.828125 -525.101562 27.828125 -551.1875 C 27.828125 -602.195312 43.472656 -642.046875 74.765625 -670.734375 C 106.066406 -699.421875 150.40625 -713.765625 207.78125 -713.765625 C 265.75 -713.765625 310.671875 -698.40625 342.546875 -667.6875 C 374.421875 -636.96875 390.359375 -593.207031 390.359375 -536.40625 C 390.359375 -484.832031 377.609375 -436.726562 352.109375 -392.09375 C 326.609375 -347.46875 289.515625 -306.898438 240.828125 -270.390625 L 240.828125 -185.1875 L 112.15625 -185.1875 Z M 107.8125 -134.765625 L 246.046875 -134.765625 L 246.046875 0 L 107.8125 0 Z M 107.8125 -134.765625 "/></g></g></g></svg>